<svg xmlns="http://www.w3.org/2000/svg" width="235.181" height="153.499" viewBox="0 0 235.181 153.499">
  <g id="Group_5712" data-name="Group 5712" transform="translate(-611 -371.5)">
    <g id="noun_Worker_3856238" transform="translate(611 371.5)">
      <path id="Path_3409" data-name="Path 3409" d="M68.458,63.877C55.95,63.877,45.775,53.166,45.775,40H41c0,15.8,12.317,28.652,27.458,28.652S95.917,55.8,95.917,40H91.142C91.142,53.166,80.966,63.877,68.458,63.877Z" transform="translate(-9.96 7.758)"/>
      <path id="Path_3410" data-name="Path 3410" d="M39.388,42.979H99.08a2.388,2.388,0,0,0,2.388-2.388V33.715a2.391,2.391,0,0,0-.758-1.745L98.8,30.19a27.284,27.284,0,0,0-15.735-24V5.069A5.319,5.319,0,0,0,77.541,0H60.928A5.323,5.323,0,0,0,55.4,5.073V6.205A27.3,27.3,0,0,0,39.665,30.188L37.758,31.97A2.391,2.391,0,0,0,37,33.715v6.876a2.388,2.388,0,0,0,2.388,2.388ZM69.234,19.1a2.388,2.388,0,1,1-2.388,2.388A2.388,2.388,0,0,1,69.234,19.1ZM41.775,34.752l1.9-1.774a2.389,2.389,0,0,0,.753-1.891A22.487,22.487,0,0,1,58.7,9.963a2.389,2.389,0,0,0,1.473-2.206l0-2.665a.881.881,0,0,1,.758-.316h5.918v9.968a7.163,7.163,0,1,0,4.775,0V4.776h5.919a.926.926,0,0,1,.753.293V7.747a2.388,2.388,0,0,0,1.473,2.206A22.25,22.25,0,0,1,94.039,31.085a2.388,2.388,0,0,0,.753,1.892l1.9,1.774V38.2H41.775Z" transform="translate(-10.735 0.004)"/>
      <path id="Path_3411" data-name="Path 3411" d="M22.163,135.631a2.39,2.39,0,0,1-2.388-2.388V87.4c0-2.791,2.9-6.211,5.531-7.455l20.734-7.5V85.489h4.775s.027-14.622,0-14.765l4.043-1.479L66.6,85.489h5.89L57.675,64.99a2.392,2.392,0,0,0-2.748-.848L23.583,75.486q-.092.033-.18.073C19.272,77.448,15,82.391,15,87.4v45.848a7.171,7.171,0,0,0,7.163,7.163H35.949a14.259,14.259,0,0,1-2.871-4.775Z" transform="translate(-15 12.411)"/>
      <path id="Path_3412" data-name="Path 3412" d="M113.932,75.559q-.088-.04-.18-.073L82.407,64.142a2.393,2.393,0,0,0-2.748.848l-14.812,20.5h5.89L82.476,69.245l4.087,1.479c-.027.142-.044,14.765-.044,14.765h4.775V72.437l20.734,7.5c2.628,1.244,5.531,4.664,5.531,7.455v45.848a2.391,2.391,0,0,1-2.388,2.388H104.256a14.259,14.259,0,0,1-2.871,4.775h13.786a7.171,7.171,0,0,0,7.163-7.163V87.4C122.334,82.391,118.062,77.448,113.932,75.559Z" transform="translate(-5.337 12.411)"/>
      <path id="Path_3413" data-name="Path 3413" d="M112.38,88.546A7.243,7.243,0,0,0,106.74,86H35.226a7.023,7.023,0,0,0-7.073,8.587l6.538,33.871a9.73,9.73,0,0,0,9.293,7.684h54a9.73,9.73,0,0,0,9.293-7.684l6.538-33.871a7.267,7.267,0,0,0-1.433-6.042Zm-3.256,5.137-6.538,33.871a4.955,4.955,0,0,1-4.6,3.813h-54a4.955,4.955,0,0,1-4.6-3.813s-6.518-33.772-6.538-33.871a2.332,2.332,0,0,1,2.384-2.907H106.74a2.318,2.318,0,0,1,2.384,2.907Z" transform="translate(-12.485 16.675)"/>
      <circle id="Ellipse_262" data-name="Ellipse 262" cx="2.388" cy="2.388" r="2.388" transform="translate(56.111 125.358)"/>
    </g>
    <path id="Path_3373" data-name="Path 3373" d="M109.891,14.791A2.792,2.792,0,0,0,107.1,12H17.791A2.792,2.792,0,0,0,15,14.791V120.845a2.792,2.792,0,0,0,2.791,2.791H107.1a2.792,2.792,0,0,0,2.791-2.791ZM20.582,17.582V118.054h83.727V17.582Zm11.164,89.309H59.654a2.791,2.791,0,1,0,0-5.582H31.745a2.791,2.791,0,1,0,0,5.582ZM79.191,68.452l-6.52,5.794a2.79,2.79,0,0,1-3.706-4.172l11.164-9.922a2.787,2.787,0,0,1,3.706,0L95,70.073a2.79,2.79,0,0,1-3.706,4.172l-6.52-5.794V104.1H79.191V68.452ZM31.745,92.936H59.654a2.791,2.791,0,1,0,0-5.582H31.745a2.791,2.791,0,1,0,0,5.582Zm0-13.954H59.654a2.791,2.791,0,0,0,0-5.582H31.745a2.791,2.791,0,1,0,0,5.582Zm0-13.955H59.654a2.791,2.791,0,1,0,0-5.582H31.745a2.791,2.791,0,1,0,0,5.582Zm0-16.745h61.4a2.791,2.791,0,1,0,0-5.582h-61.4a2.791,2.791,0,1,0,0,5.582Zm0-13.954h61.4a2.791,2.791,0,1,0,0-5.582h-61.4a2.791,2.791,0,1,0,0,5.582Z" transform="translate(736.29 401.363)"/>
    <g id="noun_tick_3923816" transform="translate(826.235 451.277)">
      <path id="Path_3432" data-name="Path 3432" d="M19.5,2A17.5,17.5,0,1,0,37,19.5,17.5,17.5,0,0,0,19.5,2Zm9.933,14.415-10.5,9.625a1.75,1.75,0,0,1-2.42-.052l-5.25-5.25a1.75,1.75,0,1,1,2.475-2.475L17.8,22.328l9.265-8.493a1.75,1.75,0,1,1,2.366,2.58Z" transform="translate(-47 -79.832)" fill="#f37320"/>
    </g>
  </g>
</svg>
