<svg xmlns="http://www.w3.org/2000/svg" width="92.344" height="138.375" viewBox="0 0 92.344 138.375">
  <path id="Path_3522" data-name="Path 3522" d="M13.313-67.125,21.188-136.5h76.5v22.594H43.406L40.031-84.562a42.955,42.955,0,0,1,20.531-5.156q19.5,0,30.563,12.094t11.063,33.844a49.489,49.489,0,0,1-5.578,23.672A39.371,39.371,0,0,1,80.625-3.891Q70.219,1.875,56.063,1.875A52.989,52.989,0,0,1,33.094-3.141,40.741,40.741,0,0,1,16.359-17.25,38.454,38.454,0,0,1,9.844-37.969H36.656Q37.5-29.437,42.609-24.7t13.359,4.734q9.188,0,14.156-6.609t4.969-18.7q0-11.625-5.719-17.812T53.156-69.281q-9.656,0-15.656,5.063l-2.625,2.438Z" transform="translate(-9.844 136.5)" fill="#f37320" opacity="0.1"/>
</svg>
