<svg xmlns="http://www.w3.org/2000/svg" width="96.281" height="138.375" viewBox="0 0 96.281 138.375">
  <path id="Path_3519" data-name="Path 3519" d="M102.844,0H9.281V-18.562L53.438-65.625A108.933,108.933,0,0,0,66.891-82.969q4.359-7.406,4.359-14.062,0-9.094-4.594-14.3t-13.125-5.2q-9.187,0-14.484,6.328t-5.3,16.641H6.563a44.75,44.75,0,0,1,5.953-22.781,41.958,41.958,0,0,1,16.828-16.172A51.148,51.148,0,0,1,54-138.375q21.094,0,32.766,10.125T98.438-99.656a45.9,45.9,0,0,1-5.25,20.625q-5.25,10.5-18,24.469L44.156-21.844h58.688Z" transform="translate(-6.563 138.375)" fill="#f37320" opacity="0.1"/>
</svg>
