<svg id="noun_PDF_File_1255550" data-name="noun_PDF File_1255550" xmlns="http://www.w3.org/2000/svg" width="19.88" height="24.241" viewBox="0 0 19.88 24.241">
  <g id="Group_1115" data-name="Group 1115" transform="translate(0 0)">
    <g id="Group_1114" data-name="Group 1114" transform="translate(0)">
      <path id="Path_3237" data-name="Path 3237" d="M11.152,23.489v-3.44h13.4a.474.474,0,0,0,.474-.474v-6.45a.474.474,0,0,0-.474-.474h-13.4V1.142H23.216V5.376a.474.474,0,0,0,.474.474h4.24V23.489Zm-1.2-9.89H24.082v5.5H9.949ZM24.165,1.812,27.26,4.9H24.165ZM28.879,5.36c0-.005,0-.011,0-.016a.478.478,0,0,0-.007-.06h0a.474.474,0,0,0-.016-.059l-.005-.015a.489.489,0,0,0-.023-.053l0,0a.473.473,0,0,0-.033-.052l-.01-.013a.469.469,0,0,0-.04-.047h0L24.026.334h0a.477.477,0,0,0-.047-.041l-.013-.01a.477.477,0,0,0-.052-.033l0,0a.467.467,0,0,0-.053-.023L23.843.22A.472.472,0,0,0,23.723.2H10.678A.474.474,0,0,0,10.2.669V12.651H9.475A.474.474,0,0,0,9,13.125v6.45a.474.474,0,0,0,.474.474H10.2v3.913a.474.474,0,0,0,.474.474H28.405a.474.474,0,0,0,.474-.474V5.376c0-.005,0-.011,0-.016ZM14.93,16.1a.434.434,0,0,1-.287.08h-.5v-.656h.5q.38,0,.38.33a.307.307,0,0,1-.093.246M14.738,15h-.972a.291.291,0,0,0-.323.322v2.027a.321.321,0,0,0,.345.345.353.353,0,0,0,.258-.093.337.337,0,0,0,.095-.252V16.7h.6a.983.983,0,0,0,.689-.227.915.915,0,0,0,0-1.252A.987.987,0,0,0,14.738,15m2.9,1.919a.807.807,0,0,1-.586.191h-.342v-1.55h.342a.812.812,0,0,1,.586.189.972.972,0,0,1,0,1.169m.228-1.758A1.687,1.687,0,0,0,17.1,15h-.767a.291.291,0,0,0-.323.322v2.027a.291.291,0,0,0,.323.322H17.1a1.713,1.713,0,0,0,.769-.159,1.114,1.114,0,0,0,.49-.46,1.447,1.447,0,0,0,.169-.718,1.414,1.414,0,0,0-.171-.712,1.14,1.14,0,0,0-.491-.46m2.678.385a.4.4,0,0,0,.249-.064.245.245,0,0,0,.082-.2.258.258,0,0,0-.08-.21A.388.388,0,0,0,20.545,15H19.27a.291.291,0,0,0-.323.322v2.027a.344.344,0,1,0,.687,0v-.766h.835a.4.4,0,0,0,.249-.064.245.245,0,0,0,.082-.2.256.256,0,0,0-.082-.208.382.382,0,0,0-.249-.068h-.835v-.493Z" transform="translate(-9 -0.195)" fill="#f37320" fill-rule="evenodd"/>
    </g>
  </g>
</svg>
